HIERARCHY
ROOT Hips
{
	OFFSET 0.000000 100.481300 0.000000
	CHANNELS 6 Xposition Yposition Zposition Xrotation Yrotation Zrotation 
	JOINT Spine
	{
		OFFSET -0.279200 12.230698 -2.892100
		CHANNELS 3 Xrotation Yrotation Zrotation
		JOINT Spine1
		{
			OFFSET -0.232667 10.192268 -1.242267
			CHANNELS 3 Xrotation Yrotation Zrotation
			JOINT Spine1_split
			{
				OFFSET -0.232667 10.192268 -1.242267
				CHANNELS 3 Xrotation Yrotation Zrotation
				JOINT Spine2
				{
					OFFSET -0.232667 10.192268 -1.242267
					CHANNELS 3 Xrotation Yrotation Zrotation
					JOINT Neck
					{
						OFFSET -0.418800 17.814194 8.416900
						CHANNELS 3 Xrotation Yrotation Zrotation
						JOINT Head
						{
							OFFSET 0.000000 7.031097 3.806800
							CHANNELS 3 Xrotation Yrotation Zrotation
							JOINT HeadTop_End
							{
								OFFSET 0.000000 24.646606 12.978600
								CHANNELS 3 Xrotation Yrotation Zrotation
								End Site
								{
									OFFSET 0.000000 0.000000 0.000000
								}
							}
						}
					}
					JOINT LeftShoulder
					{
						OFFSET 8.476499 7.247704 -3.868750
						CHANNELS 3 Xrotation Yrotation Zrotation
						JOINT LeftShoulder_split
						{
							OFFSET 8.476499 7.247704 -3.868750
							CHANNELS 3 Xrotation Yrotation Zrotation
							JOINT LeftArm
							{
								OFFSET 9.308998 -2.777710 0.208600
								CHANNELS 3 Xrotation Yrotation Zrotation
								JOINT LeftForeArm
								{
									OFFSET 29.972298 0.000000 0.000000
									CHANNELS 3 Xrotation Yrotation Zrotation
									JOINT LeftHand
									{
										OFFSET 26.026505 0.000000 0.000000
										CHANNELS 3 Xrotation Yrotation Zrotation
										JOINT LeftHandThumb1
										{
											OFFSET 12.240501 -7.147949 9.207150
											CHANNELS 3 Xrotation Yrotation Zrotation
											JOINT LeftHandThumb2
											{
												OFFSET 4.138618 -2.389435 2.389433
												CHANNELS 3 Xrotation Yrotation Zrotation
												JOINT LeftHandThumb3
												{
													OFFSET 2.726913 -1.574387 1.574386
													CHANNELS 3 Xrotation Yrotation Zrotation
													JOINT LeftHandThumb4
													{
														OFFSET 3.941010 -2.275345 2.275342
														CHANNELS 3 Xrotation Yrotation Zrotation
														End Site
														{
															OFFSET 0.000000 0.000000 0.000000
														}
													}
												}
											}
										}
										JOINT LeftHandIndex1
										{
											OFFSET 24.424698 -1.985611 5.953459
											CHANNELS 3 Xrotation Yrotation Zrotation
											JOINT LeftHandIndex2
											{
												OFFSET 6.426697 0.000000 0.000000
												CHANNELS 3 Xrotation Yrotation Zrotation
												JOINT LeftHandIndex3
												{
													OFFSET 5.337898 0.000000 0.000000
													CHANNELS 3 Xrotation Yrotation Zrotation
													JOINT LeftHandIndex4
													{
														OFFSET 4.409401 0.000000 0.000000
														CHANNELS 3 Xrotation Yrotation Zrotation
														End Site
														{
															OFFSET 0.000000 0.000000 0.000000
														}
													}
												}
											}
										}
										JOINT LeftHandMiddle1
										{
											OFFSET 23.810104 0.000000 0.000000
											CHANNELS 3 Xrotation Yrotation Zrotation
											JOINT LeftHandMiddle2
											{
												OFFSET 7.176498 0.000000 0.000000
												CHANNELS 3 Xrotation Yrotation Zrotation
												JOINT LeftHandMiddle3
												{
													OFFSET 6.774902 0.000000 0.000000
													CHANNELS 3 Xrotation Yrotation Zrotation
													JOINT LeftHandMiddle4
													{
														OFFSET 5.403328 0.000000 0.000000
														CHANNELS 3 Xrotation Yrotation Zrotation
														End Site
														{
															OFFSET 0.000000 0.000000 0.000000
														}
													}
												}
											}
										}
										JOINT LeftHandRing1
										{
											OFFSET 22.908401 -0.839279 -6.020567
											CHANNELS 3 Xrotation Yrotation Zrotation
											JOINT LeftHandRing2
											{
												OFFSET 6.337502 0.000000 0.000000
												CHANNELS 3 Xrotation Yrotation Zrotation
												JOINT LeftHandRing3
												{
													OFFSET 5.779297 0.000000 0.000000
													CHANNELS 3 Xrotation Yrotation Zrotation
													JOINT LeftHandRing4
													{
														OFFSET 4.965698 0.000000 0.000000
														CHANNELS 3 Xrotation Yrotation Zrotation
														End Site
														{
															OFFSET 0.000000 0.000000 0.000000
														}
													}
												}
											}
										}
										JOINT LeftHandPinky1
										{
											OFFSET 20.037003 -1.530319 -10.950146
											CHANNELS 3 Xrotation Yrotation Zrotation
											JOINT LeftHandPinky2
											{
												OFFSET 5.254700 0.000000 0.000000
												CHANNELS 3 Xrotation Yrotation Zrotation
												JOINT LeftHandPinky3
												{
													OFFSET 4.810204 0.000000 0.000000
													CHANNELS 3 Xrotation Yrotation Zrotation
													JOINT LeftHandPinky4
													{
														OFFSET 3.647202 0.000000 0.000000
														CHANNELS 3 Xrotation Yrotation Zrotation
														End Site
														{
															OFFSET 0.000000 0.000000 0.000000
														}
													}
												}
											}
										}
									}
								}
							}
						}
					}
					JOINT RightShoulder
					{
						OFFSET -7.570500 7.247704 -3.868750
						CHANNELS 3 Xrotation Yrotation Zrotation
						JOINT RightShoulder_split
						{
							OFFSET -7.570500 7.247704 -3.868750
							CHANNELS 3 Xrotation Yrotation Zrotation
							JOINT RightArm
							{
								OFFSET -9.308998 -2.777710 0.208500
								CHANNELS 3 Xrotation Yrotation Zrotation
								JOINT RightForeArm
								{
									OFFSET -29.972300 0.000000 0.000000
									CHANNELS 3 Xrotation Yrotation Zrotation
									JOINT RightHand
									{
										OFFSET -26.026505 0.000000 0.000000
										CHANNELS 3 Xrotation Yrotation Zrotation
										JOINT RightHandThumb1
										{
											OFFSET -12.240601 -7.148026 9.207092
											CHANNELS 3 Xrotation Yrotation Zrotation
											JOINT RightHandThumb2
											{
												OFFSET -4.138618 -2.389435 2.389433
												CHANNELS 3 Xrotation Yrotation Zrotation
												JOINT RightHandThumb3
												{
													OFFSET -2.726974 -1.574417 1.574421
													CHANNELS 3 Xrotation Yrotation Zrotation
													JOINT RightHandThumb4
													{
														OFFSET -3.941010 -2.275345 2.275343
														CHANNELS 3 Xrotation Yrotation Zrotation
														End Site
														{
															OFFSET 0.000000 0.000000 0.000000
														}
													}
												}
											}
										}
										JOINT RightHandIndex1
										{
											OFFSET -24.424698 -1.985657 5.953444
											CHANNELS 3 Xrotation Yrotation Zrotation
											JOINT RightHandIndex2
											{
												OFFSET -6.426697 0.000000 0.000000
												CHANNELS 3 Xrotation Yrotation Zrotation
												JOINT RightHandIndex3
												{
													OFFSET -5.337898 0.000000 0.000000
													CHANNELS 3 Xrotation Yrotation Zrotation
													JOINT RightHandIndex4
													{
														OFFSET -4.409401 0.000000 0.000000
														CHANNELS 3 Xrotation Yrotation Zrotation
														End Site
														{
															OFFSET 0.000000 0.000000 0.000000
														}
													}
												}
											}
										}
										JOINT RightHandMiddle1
										{
											OFFSET -23.810097 0.000000 0.000000
											CHANNELS 3 Xrotation Yrotation Zrotation
											JOINT RightHandMiddle2
											{
												OFFSET -7.176498 0.000000 0.000000
												CHANNELS 3 Xrotation Yrotation Zrotation
												JOINT RightHandMiddle3
												{
													OFFSET -6.774902 0.000000 0.000000
													CHANNELS 3 Xrotation Yrotation Zrotation
													JOINT RightHandMiddle4
													{
														OFFSET -5.403328 0.000000 0.000000
														CHANNELS 3 Xrotation Yrotation Zrotation
														End Site
														{
															OFFSET 0.000000 0.000000 0.000000
														}
													}
												}
											}
										}
										JOINT RightHandRing1
										{
											OFFSET -22.908302 -0.839325 -6.020576
											CHANNELS 3 Xrotation Yrotation Zrotation
											JOINT RightHandRing2
											{
												OFFSET -6.337502 0.000000 0.000000
												CHANNELS 3 Xrotation Yrotation Zrotation
												JOINT RightHandRing3
												{
													OFFSET -5.779297 0.000000 0.000000
													CHANNELS 3 Xrotation Yrotation Zrotation
													JOINT RightHandRing4
													{
														OFFSET -4.965698 0.000000 0.000000
														CHANNELS 3 Xrotation Yrotation Zrotation
														End Site
														{
															OFFSET 0.000000 0.000000 0.000000
														}
													}
												}
											}
										}
										JOINT RightHandPinky1
										{
											OFFSET -20.037003 -1.530334 -10.950259
											CHANNELS 3 Xrotation Yrotation Zrotation
											JOINT RightHandPinky2
											{
												OFFSET -5.254700 0.000000 0.000000
												CHANNELS 3 Xrotation Yrotation Zrotation
												JOINT RightHandPinky3
												{
													OFFSET -4.810204 0.000000 0.000000
													CHANNELS 3 Xrotation Yrotation Zrotation
													JOINT RightHandPinky4
													{
														OFFSET -3.647202 0.000000 0.000000
														CHANNELS 3 Xrotation Yrotation Zrotation
														End Site
														{
															OFFSET 0.000000 0.000000 0.000000
														}
													}
												}
											}
										}
									}
								}
							}
						}
					}
				}
			}
		}
	}
	JOINT LeftUpLeg
	{
		OFFSET 15.427100 -6.655098 0.678600
		CHANNELS 3 Xrotation Yrotation Zrotation
		JOINT LeftLeg
		{
			OFFSET 4.081073 -39.591068 13.024000
			CHANNELS 3 Xrotation Yrotation Zrotation
			JOINT LeftFoot
			{
				OFFSET -4.081074 -37.707932 -15.979700
				CHANNELS 3 Xrotation Yrotation Zrotation
				JOINT LeftToeBase
				{
					OFFSET 5.346399 -15.068900 20.645000
					CHANNELS 3 Xrotation Yrotation Zrotation
					JOINT LeftToe_End
					{
						OFFSET 2.754700 0.931300 11.300900
						CHANNELS 3 Xrotation Yrotation Zrotation
						End Site
						{
							OFFSET 0.000000 0.000000 0.000000
						}
					}
				}
			}
		}
	}
	JOINT RightUpLeg
	{
		OFFSET -15.569500 -6.655098 0.678600
		CHANNELS 3 Xrotation Yrotation Zrotation
		JOINT RightLeg
		{
			OFFSET -4.081825 -39.591045 13.023800
			CHANNELS 3 Xrotation Yrotation Zrotation
			JOINT RightFoot
			{
				OFFSET 4.081824 -37.707954 -15.979600
				CHANNELS 3 Xrotation Yrotation Zrotation
				JOINT RightToeBase
				{
					OFFSET -5.346400 -15.068900 20.645000
					CHANNELS 3 Xrotation Yrotation Zrotation
					JOINT RightToe_End
					{
						OFFSET -2.754700 0.931300 11.300900
						CHANNELS 3 Xrotation Yrotation Zrotation
						End Site
						{
							OFFSET 0.000000 0.000000 0.000000
						}
					}
				}
			}
		}
	}
}
MOTION
Frames: 5
Frame Time: 0.016667
-0.920370 93.377045 11.820377 4.068980 36.436713 -2.796855 7.112434 0.565871 -2.397402 1.179945 0.647736 1.438046 0.000000 0.000000 0.000000 1.171142 0.823280 1.416791 -1.447712 25.849746 -8.284149 -8.495196 20.302440 -2.010672 -0.000000 0.000000 -0.000000 -0.063461 -2.703523 -0.486097 0.000000 0.000000 0.000000 -58.743834 21.372260 -22.798866 10.391466 -75.898373 11.787492 -50.033929 13.093965 4.982035 17.538841 -5.734682 -12.929156 10.855092 26.140251 8.645421 20.951668 51.158680 0.208824 -0.000001 -0.000005 0.000001 13.990893 1.412551 -54.992011 0.369644 1.160682 -65.362554 1.981638 2.149115 -57.592585 -0.000000 -0.000000 -0.000000 7.444396 1.211140 -63.725556 1.805182 1.477039 -64.469459 0.129500 -0.913957 -43.167841 0.000000 -0.000001 0.000000 8.572764 2.194696 -75.055733 -0.208466 1.006763 -57.746408 0.442979 1.742049 -53.571817 0.000001 -0.000001 -0.000001 10.012731 13.637215 -84.737629 0.876228 0.062052 -64.553914 1.144418 1.253358 -55.141767 0.000001 0.000000 -0.000002 4.836700 8.975270 6.727817 0.000000 0.000000 0.000000 10.740027 17.144876 61.498402 10.869370 22.267129 -5.100400 -0.365999 5.346427 5.429071 15.788513 -2.734456 -17.205885 -1.822767 -31.650837 7.412946 -6.030944 -5.243009 2.168339 0.000000 -0.000001 -0.000001 2.375262 -3.654538 13.539323 -2.144071 -2.475449 24.342712 -1.902146 -4.809717 19.843101 -0.000000 -0.000001 0.000002 -1.975838 -5.709680 18.810592 0.284033 -5.102733 32.657573 -0.662523 -1.222448 21.795101 -0.000001 -0.000001 -0.000001 -3.263397 -8.564377 16.917260 4.034744 -4.065642 38.932328 2.105436 -3.163314 21.262920 0.000001 0.000000 -0.000002 -6.473132 -11.350175 28.409175 10.721019 -2.560815 40.492408 6.414932 -3.081970 20.980289 0.000000 -0.000000 0.000000 -26.132106 7.359675 -0.623671 22.197217 -32.454422 -3.336633 -0.663014 -8.045829 5.807570 -0.121071 -0.038767 -0.589224 -0.000001 -0.000000 0.000000 -14.113156 14.403810 1.608601 21.911764 11.787821 0.731215 -10.946251 3.388005 -1.651113 -0.761725 -0.032669 0.008808 0.000000 0.000001 -0.000000 
-1.683458 93.622955 12.169428 4.327204 39.264603 -3.150701 7.214498 0.416937 -2.687315 1.139008 0.472323 1.508123 0.000000 0.000000 0.000000 1.129820 0.657999 1.495976 -1.497326 24.861769 -8.282020 -9.017811 19.238514 -1.161759 0.000000 -0.000000 -0.000001 -0.098272 -4.304835 -0.130149 0.000000 0.000000 0.000000 -58.723453 20.289161 -23.609847 9.881762 -75.007047 11.444823 -50.003357 13.081687 4.645802 17.538833 -5.734768 -12.929149 10.856101 26.143007 8.645554 20.949759 51.155337 0.209597 -0.000000 -0.000000 -0.000001 13.990643 1.416731 -54.990133 0.369585 1.160646 -65.359385 1.981595 2.149144 -57.590967 0.000000 -0.000000 0.000000 7.443680 1.211636 -63.724586 1.805151 1.477057 -64.467943 0.129475 -0.913986 -43.166290 0.000000 0.000000 0.000000 8.572815 2.194725 -75.057604 -0.208461 1.006801 -57.748157 0.442989 1.742059 -53.573145 -0.000000 0.000000 -0.000000 10.014123 13.637212 -84.738612 0.876275 0.062058 -64.556073 1.144482 1.253383 -55.143689 0.000001 0.000000 -0.000005 4.845237 8.887827 6.669458 0.000000 0.000000 0.000000 9.629278 15.060109 62.090272 10.941251 22.517795 -5.122148 -0.392304 5.635274 5.539872 15.788512 -2.734456 -17.205889 -1.914297 -31.520141 7.399904 -6.150514 -4.993751 2.220931 0.000001 0.000004 0.000000 2.374036 -3.654726 14.015426 -2.143510 -2.475492 24.691619 -1.902135 -4.809973 20.192047 -0.000001 0.000000 -0.000001 -1.975736 -5.709873 19.281537 0.284155 -5.104059 33.006500 -0.661543 -1.222729 22.144016 -0.000001 -0.000000 -0.000000 -3.264531 -8.564577 17.387993 4.034672 -4.065555 39.281179 2.106999 -3.163367 21.611907 0.000000 0.000000 0.000000 -6.473068 -11.350450 28.880048 10.721154 -2.560936 40.841294 6.414994 -3.082107 21.329178 -0.000000 -0.000000 0.000000 -26.664382 7.749977 -0.730138 21.772329 -35.531566 -3.299530 -0.608753 -6.241275 5.425461 -0.111912 -0.038830 -0.619489 0.000000 -0.000000 0.000000 -13.414802 13.568787 1.979661 21.331762 10.779646 0.679298 -10.987281 2.271037 -2.069609 -0.760463 -0.032698 0.011433 0.000000 0.000001 0.000000 
-2.395636 93.723579 12.396054 4.728439 41.559912 -3.740198 7.289157 0.365501 -2.843254 1.074960 0.409437 1.547331 0.000000 0.000000 0.000000 1.065679 0.600858 1.538321 -1.669406 23.934916 -8.054799 -9.247519 18.341348 -0.647390 0.000000 0.000000 0.000000 -0.137374 -5.857315 0.179678 0.000000 0.000000 0.000000 -58.765117 19.401625 -24.164861 9.711174 -74.412951 11.445000 -50.015986 13.301356 4.477779 17.538785 -5.734863 -12.929143 10.857146 26.145781 8.645659 20.947799 51.151980 0.210393 0.000001 -0.000003 -0.000002 13.990323 1.420889 -54.988285 0.369543 1.160622 -65.356257 1.981553 2.149168 -57.589334 0.000000 -0.000001 -0.000000 7.442979 1.212093 -63.723609 1.805120 1.477072 -64.466419 0.129460 -0.914006 -43.164764 0.000001 -0.000002 0.000000 8.572832 2.194762 -75.059442 -0.208430 1.006841 -57.749905 0.443025 1.742070 -53.574477 -0.000000 -0.000001 -0.000001 10.015486 13.637204 -84.739575 0.876307 0.062089 -64.557732 1.144533 1.253382 -55.145598 -0.000000 -0.000000 -0.000001 4.849106 8.873603 6.578575 0.000000 0.000000 0.000000 8.499945 12.815138 62.567347 10.948431 22.781411 -5.092076 -0.404704 5.981662 5.562213 15.788512 -2.734455 -17.205890 -1.995389 -31.404134 7.388581 -6.258815 -4.769364 2.268984 -0.000000 0.000003 0.000002 2.372865 -3.654838 14.485511 -2.142877 -2.475696 25.045076 -1.902099 -4.810194 20.545421 0.000000 0.000000 -0.000002 -1.975683 -5.710051 19.743908 0.284322 -5.105384 33.359795 -0.660447 -1.222912 22.497434 0.000001 -0.000000 0.000002 -3.265560 -8.564764 17.850232 4.034650 -4.066054 39.634526 2.108566 -3.163458 21.965368 -0.000001 -0.000000 -0.000000 -6.472942 -11.350336 29.342537 10.721298 -2.561083 41.194688 6.415029 -3.082239 21.682587 -0.000000 -0.000000 -0.000000 -27.330572 8.355157 0.513730 21.398122 -34.409885 -3.036042 -0.861633 -6.475222 4.197883 -0.094639 -0.039031 -0.589709 0.000000 0.000001 0.000000 -13.209144 12.912014 2.450736 20.996183 9.570435 0.616699 -11.009739 1.685819 -2.241601 -0.759831 -0.032731 0.012692 0.000000 -0.000001 -0.000000 
-3.075481 93.765160 12.544784 5.164454 43.540912 -4.389491 7.373537 0.359696 -2.967839 1.021571 0.402660 1.586734 0.000000 0.000000 0.000000 1.011853 0.599501 1.577682 -1.918162 23.066298 -7.797575 -9.375053 17.512231 -0.237607 -0.000000 0.000000 0.000000 -0.156234 -7.215452 0.446555 0.000000 0.000000 0.000000 -58.915019 18.233875 -24.765125 9.440006 -73.554423 11.301910 -49.997504 13.434654 4.113518 17.538765 -5.734941 -12.929133 10.858170 26.148570 8.645796 20.945861 51.148640 0.211176 0.000000 0.000002 -0.000002 13.990058 1.425075 -54.986400 0.369495 1.160563 -65.353067 1.981495 2.149207 -57.587715 -0.000000 0.000001 0.000001 7.442272 1.212583 -63.722646 1.805082 1.477105 -64.464910 0.129457 -0.914045 -43.163230 0.000000 -0.000001 0.000000 8.572872 2.194770 -75.061306 -0.208437 1.006882 -57.751626 0.443038 1.742086 -53.575785 -0.000000 0.000002 -0.000001 10.016864 13.637175 -84.740572 0.876324 0.062101 -64.559016 1.144570 1.253397 -55.147518 -0.000000 -0.000000 0.000002 4.849876 8.905631 6.467973 0.000000 0.000000 0.000000 7.348091 10.428498 62.949592 10.867225 23.018812 -5.002917 -0.408418 6.356091 5.557299 15.788513 -2.734455 -17.205890 -2.064766 -31.304782 7.379090 -6.354876 -4.573798 2.311982 -0.000000 -0.000000 0.000001 2.372190 -3.658609 14.937733 -2.142235 -2.475758 25.392326 -1.902045 -4.810388 20.892628 0.000000 0.000000 -0.000000 -1.975997 -5.710186 20.185567 0.284471 -5.106713 33.706994 -0.659262 -1.222991 22.844659 -0.000001 -0.000000 -0.000002 -3.266475 -8.564926 18.291820 4.034664 -4.065971 39.981762 2.109985 -3.163533 22.312664 -0.000000 -0.000000 0.000000 -6.472832 -11.350818 29.784177 10.721333 -2.561117 41.541948 6.415125 -3.082426 22.029793 -0.000000 -0.000000 -0.000000 -27.974559 8.476822 2.159219 20.854432 -32.431978 -3.070065 -1.166287 -6.238059 2.870161 -0.073163 -0.039230 -0.550337 -0.000000 0.000000 0.000000 -13.217377 12.260672 2.953270 20.776993 8.615462 0.567611 -10.981753 1.154632 -2.412800 -0.759186 -0.032700 0.013644 0.000000 -0.000001 0.000000 
-3.713655 93.729271 12.590923 5.494968 45.113355 -4.947501 7.514389 0.401162 -3.104342 1.023299 0.451929 1.657555 0.000000 0.000000 0.000000 1.012043 0.657308 1.644972 -2.313504 22.315131 -7.654862 -9.473902 16.723052 0.190876 -0.000000 -0.000000 0.000000 -0.162174 -8.478673 0.698767 0.000000 0.000000 0.000000 -59.129733 17.140032 -25.251233 8.961036 -72.724747 10.955321 -49.984506 13.538422 3.789745 17.538741 -5.735022 -12.929116 10.859205 26.151362 8.645924 20.943981 51.145338 0.211910 0.000002 -0.000001 0.000000 13.989779 1.429207 -54.984532 0.369442 1.160524 -65.349836 1.981444 2.149210 -57.586110 -0.000001 0.000003 0.000001 7.441588 1.213047 -63.721697 1.805034 1.477112 -64.463441 0.129429 -0.914053 -43.161714 0.000000 -0.000001 0.000000 8.572900 2.194810 -75.063164 -0.208428 1.006919 -57.753395 0.443052 1.742111 -53.577063 0.000001 -0.000001 0.000001 10.018216 13.637139 -84.741522 0.876342 0.062105 -64.560007 1.144627 1.253391 -55.149434 0.000000 -0.000000 0.000000 4.846043 9.003015 6.330892 0.000000 0.000000 0.000000 6.141263 7.968127 63.262660 10.616783 23.109277 -4.849904 -0.402501 6.757252 5.561206 15.788513 -2.734455 -17.205890 -2.121000 -31.224008 7.371483 -6.435913 -4.409732 2.348444 0.000001 0.000003 0.000001 2.371522 -3.661685 15.359535 -2.141578 -2.475914 25.722733 -1.901959 -4.810497 21.223068 -0.000001 -0.000000 0.000001 -1.975804 -5.710323 20.594023 0.284607 -5.107999 34.037414 -0.657995 -1.222904 23.175144 -0.000000 -0.000000 0.000001 -3.267332 -8.565067 18.700095 4.034769 -4.065340 40.312162 2.111277 -3.165375 22.643182 -0.000001 0.000000 -0.000001 -6.472780 -11.352132 30.192435 10.721410 -2.561293 41.872359 6.415152 -3.082548 22.360200 -0.000000 -0.000000 -0.000000 -28.537850 8.675105 4.049173 20.382570 -29.972356 -3.171069 -1.388836 -5.818131 1.562519 -0.049070 -0.039350 -0.505214 -0.000000 -0.000000 0.000000 -13.394036 11.619007 3.433850 20.764352 8.011616 0.537352 -10.930148 0.686762 -2.599638 -0.758560 -0.032773 0.014300 0.000000 -0.000000 -0.000000 
